<svg width="18" height="13" viewBox="0 0 18 13" fill="none" xmlns="http://www.w3.org/2000/svg">
<path d="M0.383057 12.2151V0.672363H4.40845C5.80287 0.672363 6.86052 0.941904 7.5814 1.48099C8.30229 2.01478 8.66273 2.79962 8.66273 3.83551C8.66273 4.40102 8.51803 4.90046 8.22862 5.33384C7.93922 5.76194 7.53668 6.0764 7.02101 6.27723C7.61034 6.42522 8.0734 6.72383 8.41016 7.17306C8.75219 7.6223 8.9232 8.17195 8.9232 8.82202C8.9232 9.9319 8.57065 10.7722 7.86555 11.343C7.16045 11.9138 6.15542 12.2045 4.85045 12.2151H0.383057ZM2.75093 7.18892V10.3045H4.77942C5.33718 10.3045 5.77129 10.1724 6.08175 9.90811C6.39747 9.63857 6.55532 9.26861 6.55532 8.79824C6.55532 7.74121 6.01071 7.20477 4.92149 7.18892H2.75093ZM2.75093 5.50825H4.50316C5.69763 5.48711 6.29486 5.00881 6.29486 4.07334C6.29486 3.55011 6.14226 3.17487 5.83707 2.94761C5.53714 2.71506 5.06093 2.59879 4.40845 2.59879H2.75093V5.50825Z" fill="#000E22"/>
<path d="M14.4877 12.3736C13.2354 12.3736 12.2146 11.9878 11.4253 11.2162C10.6412 10.4446 10.2492 9.4166 10.2492 8.13231V7.91034C10.2492 7.04886 10.415 6.27988 10.7465 5.60338C11.078 4.9216 11.5463 4.39837 12.1514 4.0337C12.7618 3.66374 13.4564 3.47876 14.2351 3.47876C15.4033 3.47876 16.3215 3.84872 16.9898 4.58864C17.6633 5.32856 18.0001 6.37765 18.0001 7.73593V8.67139H12.5618C12.6355 9.23162 12.8565 9.68085 13.2248 10.0191C13.5984 10.3573 14.0694 10.5265 14.6377 10.5265C15.5164 10.5265 16.2031 10.2067 16.6977 9.56722L17.8185 10.8277C17.4765 11.314 17.0134 11.6945 16.4294 11.9693C15.8453 12.2389 15.1981 12.3736 14.4877 12.3736ZM14.2272 5.33384C13.7747 5.33384 13.4064 5.48711 13.1222 5.79365C12.8434 6.10018 12.6644 6.53885 12.5855 7.10964H15.7585V6.9273C15.748 6.41993 15.6111 6.02883 15.348 5.75401C15.0849 5.4739 14.7113 5.33384 14.2272 5.33384Z" fill="#000E22"/>
</svg>
