<svg width="17" height="17" viewBox="0 0 17 17" fill="none" xmlns="http://www.w3.org/2000/svg">
<path d="M1.07373 4.07954C1.07373 5.46819 1.53551 6.47019 2.44519 7.05855C3.19108 7.54189 4.05542 7.61439 4.50517 7.61439C4.61437 7.61439 4.70228 7.60881 4.76336 7.60509C4.76336 7.60509 4.62084 8.5383 5.30935 9.46036H5.27789C4.08503 9.46036 0.19458 9.71039 0.19458 12.9246C0.19458 16.1927 3.76761 16.359 4.48481 16.359C4.54126 16.359 4.57457 16.3572 4.57457 16.3572C4.58198 16.3572 4.63287 16.359 4.72079 16.359C5.18072 16.359 6.36988 16.3014 7.4739 15.7614C8.90645 15.0643 9.6329 13.8476 9.6329 12.1503C9.6329 10.5107 8.5261 9.53472 7.71821 8.82087C7.22496 8.38494 6.79835 8.00942 6.79835 7.64413C6.79835 7.27234 7.11021 6.99256 7.50352 6.63842C8.14113 6.06679 8.74265 5.25162 8.74265 3.71053C8.74265 2.35626 8.56774 1.44629 7.48963 0.869074C7.60161 0.811446 7.99954 0.769618 8.19573 0.741734C8.77966 0.661798 9.63382 0.570707 9.63382 0.0920196V0H5.37783C5.33527 0.00185898 1.07373 0.159872 1.07373 4.07954ZM7.94401 12.457C8.02545 13.7639 6.91218 14.7278 5.23995 14.8495C3.54181 14.975 2.14443 14.2073 2.063 12.9013C2.0232 12.273 2.29805 11.6595 2.83572 11.1697C3.38079 10.6743 4.12945 10.3675 4.94381 10.3071C5.04006 10.3015 5.13538 10.296 5.23069 10.296C6.80298 10.2969 7.8672 11.2245 7.94401 12.457ZM6.83259 3.18444C7.24995 4.66047 6.61974 6.20156 5.61474 6.48692C5.49905 6.5193 5.37948 6.53556 5.25938 6.53525C4.33952 6.53525 3.42798 5.60018 3.08928 4.31098C2.9005 3.58969 2.91623 2.95578 3.13278 2.34789C3.3447 1.74837 3.72782 1.3459 4.20903 1.20927C4.32471 1.17674 4.44409 1.16 4.56532 1.16C5.67582 1.16 6.39024 1.62289 6.83259 3.18444ZM14.0397 6.32054V3.53207H12.1889V6.32054H9.41265V8.17952H12.1889V10.968H14.0397V8.17952H16.816V6.32054H14.0397Z" fill="#000E22"/>
</svg>
