<svg width="18" height="15" viewBox="0 0 18 15" fill="none" xmlns="http://www.w3.org/2000/svg">
<path d="M15.9557 4.31517C15.9673 4.46585 15.9673 4.61566 15.9673 4.76547C15.9673 9.35027 12.3689 14.6333 5.79268 14.6333C3.76664 14.6333 1.88443 14.0642 0.300537 13.0758C0.588195 13.1076 0.8652 13.1188 1.1644 13.1188C2.77404 13.1226 4.33809 12.6006 5.60446 11.6371C4.85817 11.624 4.13472 11.3852 3.53513 10.9541C2.93554 10.523 2.48975 9.92102 2.25999 9.23231C2.48106 9.26417 2.70302 9.28569 2.93563 9.28569C3.25614 9.28569 3.57842 9.24264 3.87762 9.16774C3.0677 9.00915 2.33943 8.58342 1.81662 7.96293C1.29381 7.34245 1.00876 6.56551 1.00992 5.76423V5.72118C1.48668 5.97861 2.0398 6.13962 2.62578 6.16114C2.13488 5.8448 1.73237 5.41554 1.45414 4.91166C1.17591 4.40778 1.03061 3.84495 1.03122 3.27337C1.03122 2.62935 1.2079 2.0387 1.51776 1.52383C2.41637 2.59578 3.53714 3.47274 4.80748 4.09791C6.07783 4.72307 7.46941 5.0825 8.89211 5.15292C8.83706 4.89462 8.80333 4.62685 8.80333 4.35822C8.80309 3.90272 8.89544 3.45165 9.07507 3.03078C9.25471 2.60991 9.51812 2.2275 9.85025 1.90541C10.1824 1.58332 10.5767 1.32788 11.0107 1.15367C11.4447 0.979461 11.9098 0.889911 12.3795 0.890137C13.4094 0.890137 14.339 1.30858 14.9924 1.98532C15.793 1.83518 16.5608 1.55174 17.2617 1.14757C16.9949 1.949 16.4358 2.62857 15.6894 3.05898C16.3994 2.98044 17.0934 2.79935 17.7483 2.52172C17.2592 3.21318 16.6531 3.81954 15.9557 4.31517Z" fill="#000E22"/>
</svg>
