<svg width="26" height="13" viewBox="0 0 26 13" fill="none" xmlns="http://www.w3.org/2000/svg">
<path d="M17.9843 7.63683C17.9714 6.93708 18.056 6.22739 18.238 5.50775C18.4038 4.78842 18.6923 4.10752 19.1037 3.46504C19.4985 2.80659 20.0164 2.20284 20.6574 1.65379C21.2981 1.08846 22.079 0.618221 22.9999 0.243062C23.0807 0.209012 23.1616 0.183098 23.2427 0.16532C23.3074 0.147844 23.3805 0.138354 23.4619 0.13685C23.8362 0.129931 24.1479 0.262538 24.3971 0.534671C24.6461 0.790531 24.7735 1.08119 24.7795 1.40666C24.7843 1.66703 24.7156 1.91248 24.5734 2.14302C24.4146 2.35758 24.2059 2.51608 23.9473 2.61854C23.2201 2.90872 22.6407 3.26942 22.2092 3.70065C21.7773 4.1156 21.4274 4.5616 21.1595 5.03864C21.2891 5.00369 21.4027 4.98531 21.5004 4.9835C21.5977 4.96542 21.7115 4.95518 21.8416 4.95277C22.3624 4.94315 22.8524 5.03176 23.3116 5.21862C23.7709 5.40548 24.1746 5.66661 24.5226 6.00204C24.8707 6.33746 25.1466 6.73119 25.3503 7.18323C25.554 7.63527 25.6606 8.12166 25.6703 8.64241C25.6796 9.14688 25.5908 9.62875 25.404 10.088C25.2171 10.5473 24.9558 10.9428 24.6201 11.2746C24.2847 11.6226 23.8909 11.8985 23.4389 12.1022C22.9869 12.3059 22.5005 12.4126 21.9797 12.4222C21.3288 12.4342 20.7568 12.3146 20.2638 12.0632C19.7545 11.8122 19.3411 11.4617 19.0235 11.0118C18.6899 10.5784 18.4363 10.0703 18.2627 9.48747C18.0892 8.90464 17.9964 8.28776 17.9843 7.63683ZM1.0302 7.95024C1.01727 7.25049 1.10182 6.54079 1.28387 5.82116C1.44963 5.10183 1.73821 4.42092 2.14958 3.77844C2.54438 3.11999 3.06228 2.51624 3.70328 1.96719C4.34399 1.40187 5.12482 0.931627 6.04577 0.556468C6.12654 0.522418 6.20745 0.496504 6.28852 0.478726C6.35331 0.46125 6.42639 0.451759 6.50776 0.450255C6.88204 0.443336 7.19379 0.575944 7.443 0.848077C7.69192 1.10394 7.81938 1.3946 7.8254 1.72006C7.83021 1.98044 7.76149 2.22589 7.61924 2.45642C7.46042 2.67098 7.25173 2.82949 6.99316 2.93194C6.26598 3.22212 5.68661 3.58283 5.25505 4.01406C4.82319 4.42901 4.4733 4.87501 4.20538 5.35204C4.33497 5.31709 4.44858 5.29871 4.54622 5.29691C4.64356 5.27883 4.75732 5.26859 4.8875 5.26618C5.40825 5.25655 5.89825 5.34517 6.35751 5.53203C6.81677 5.71888 7.22043 5.98002 7.56849 6.31544C7.91654 6.65086 8.19242 7.04459 8.39613 7.49664C8.59983 7.94868 8.70649 8.43507 8.71612 8.95581C8.72544 9.46029 8.63668 9.94215 8.44982 10.4014C8.26297 10.8607 8.00168 11.2562 7.66595 11.588C7.33053 11.936 6.9368 12.2119 6.48476 12.4156C6.03272 12.6193 5.54633 12.726 5.02558 12.7356C4.37465 12.7476 3.80268 12.628 3.30967 12.3766C2.80038 12.1256 2.38693 11.7751 2.06932 11.3252C1.73573 10.8918 1.48216 10.3837 1.3086 9.80088C1.13503 9.21805 1.04224 8.60117 1.0302 7.95024Z" fill="#C4C4C4"/>
</svg>
